<?xml version="1.0" standalone="no"?>
<!DOCTYPE svg PUBLIC "-//W3C//DTD SVG 20010904//EN"
 "http://www.w3.org/TR/2001/REC-SVG-20010904/DTD/svg10.dtd">
<svg version="1.0" xmlns="http://www.w3.org/2000/svg"
 width="70.000000pt" height="70.000000pt" viewBox="0 0 70.000000 70.000000"
 preserveAspectRatio="xMidYMid meet">

<g transform="translate(0.000000,70.000000) scale(0.100000,-0.100000)"
fill="#000000" stroke="none">
<path d="M260 684 c-167 -44 -283 -221 -252 -386 15 -80 45 -139 98 -192 53
-53 112 -83 192 -98 122 -23 268 41 338 147 33 49 64 145 64 195 0 50 -31 146
-64 195 -42 63 -123 120 -201 140 -72 18 -103 18 -175 -1z m-60 -218 l0 -54
29 14 c26 13 34 13 65 0 43 -18 48 -35 44 -141 -3 -79 -3 -80 -30 -83 l-28 -3
0 68 c0 91 -7 113 -35 113 -35 0 -44 -19 -47 -100 -3 -74 -4 -75 -30 -78 l-28
-3 0 160 0 161 30 0 c30 0 30 -1 30 -54z m220 -1 c0 -30 2 -55 4 -55 2 0 17 7
32 15 31 16 59 12 87 -13 14 -12 17 -32 17 -114 l0 -99 -27 3 c-28 3 -28 4
-33 88 l-5 85 -30 0 c-35 0 -43 -19 -44 -113 -1 -63 -1 -63 -28 -60 l-28 3 -3
158 -3 157 31 0 c30 0 30 0 30 -55z"/>
</g>
</svg>
